<svg width="37" height="37" viewBox="0 0 37 37" fill="none" xmlns="http://www.w3.org/2000/svg">
<path d="M12.6109 6.16671H15.8484C16.2572 6.16671 16.6494 6.00428 16.9385 5.71516C17.2276 5.42605 17.39 5.03392 17.39 4.62504C17.39 4.21617 17.2276 3.82404 16.9385 3.53492C16.6494 3.2458 16.2572 3.08337 15.8484 3.08337H12.6109C12.202 3.08337 11.8099 3.2458 11.5208 3.53492C11.2316 3.82404 11.0692 4.21617 11.0692 4.62504C11.0692 5.03392 11.2316 5.42605 11.5208 5.71516C11.8099 6.00428 12.202 6.16671 12.6109 6.16671ZM4.62504 17.39C5.03392 17.39 5.42605 17.2276 5.71516 16.9385C6.00428 16.6494 6.16671 16.2572 6.16671 15.8484V12.6109C6.16671 12.202 6.00428 11.8099 5.71516 11.5208C5.42605 11.2316 5.03392 11.0692 4.62504 11.0692C4.21617 11.0692 3.82404 11.2316 3.53492 11.5208C3.2458 11.8099 3.08337 12.202 3.08337 12.6109V15.8484C3.08337 16.2572 3.2458 16.6494 3.53492 16.9385C3.82404 17.2276 4.21617 17.39 4.62504 17.39ZM22.2925 6.16671C22.2925 6.57558 22.455 6.96771 22.7441 7.25683C23.0332 7.54595 23.4253 7.70837 23.8342 7.70837C24.2431 7.70837 24.6352 7.54595 24.9243 7.25683C25.2134 6.96771 25.3759 6.57558 25.3759 6.16671V4.62504C25.3759 4.21617 25.2134 3.82404 24.9243 3.53492C24.6352 3.2458 24.2431 3.08337 23.8342 3.08337H22.2925C21.8837 3.08337 21.4915 3.2458 21.2024 3.53492C20.9133 3.82404 20.7509 4.21617 20.7509 4.62504C20.7509 5.03392 20.9133 5.42605 21.2024 5.71516C21.4915 6.00428 21.8837 6.16671 22.2925 6.16671V6.16671ZM32.375 11.6242H25.3759C25.3759 11.2153 25.2134 10.8232 24.9243 10.5341C24.6352 10.245 24.2431 10.0825 23.8342 10.0825C23.4253 10.0825 23.0332 10.245 22.7441 10.5341C22.455 10.8232 22.2925 11.2153 22.2925 11.6242H13.1659C12.757 11.6242 12.3649 11.7866 12.0758 12.0758C11.7866 12.3649 11.6242 12.757 11.6242 13.1659V22.2925C11.2153 22.2925 10.8232 22.455 10.5341 22.7441C10.245 23.0332 10.0825 23.4253 10.0825 23.8342C10.0825 24.2431 10.245 24.6352 10.5341 24.9243C10.8232 25.2134 11.2153 25.3759 11.6242 25.3759V32.375C11.6242 32.7839 11.7866 33.176 12.0758 33.4652C12.3649 33.7543 12.757 33.9167 13.1659 33.9167H32.375C32.7839 33.9167 33.176 33.7543 33.4652 33.4652C33.7543 33.176 33.9167 32.7839 33.9167 32.375V13.1659C33.9167 12.757 33.7543 12.3649 33.4652 12.0758C33.176 11.7866 32.7839 11.6242 32.375 11.6242V11.6242ZM30.8334 30.8334H14.7075V23.8496V14.7075H30.8334V30.8334ZM6.16671 3.08337H4.62504C4.21617 3.08337 3.82404 3.2458 3.53492 3.53492C3.2458 3.82404 3.08337 4.21617 3.08337 4.62504V6.16671C3.08337 6.57558 3.2458 6.96771 3.53492 7.25683C3.82404 7.54595 4.21617 7.70837 4.62504 7.70837C5.03392 7.70837 5.42605 7.54595 5.71516 7.25683C6.00428 6.96771 6.16671 6.57558 6.16671 6.16671C6.57558 6.16671 6.96771 6.00428 7.25683 5.71516C7.54595 5.42605 7.70837 5.03392 7.70837 4.62504C7.70837 4.21617 7.54595 3.82404 7.25683 3.53492C6.96771 3.2458 6.57558 3.08337 6.16671 3.08337V3.08337ZM6.16671 22.2925C6.16671 21.8837 6.00428 21.4915 5.71516 21.2024C5.42605 20.9133 5.03392 20.7509 4.62504 20.7509C4.21617 20.7509 3.82404 20.9133 3.53492 21.2024C3.2458 21.4915 3.08337 21.8837 3.08337 22.2925V23.8342C3.08337 24.2431 3.2458 24.6352 3.53492 24.9243C3.82404 25.2134 4.21617 25.3759 4.62504 25.3759H6.16671C6.57558 25.3759 6.96771 25.2134 7.25683 24.9243C7.54595 24.6352 7.70837 24.2431 7.70837 23.8342C7.70837 23.4253 7.54595 23.0332 7.25683 22.7441C6.96771 22.455 6.57558 22.2925 6.16671 22.2925Z" fill="#5956E8"/>
</svg>
