<svg width="38" height="37" viewBox="0 0 38 37" fill="none" xmlns="http://www.w3.org/2000/svg">
<path d="M25.3334 15.4166H22.1667V12.3333C22.1667 11.9244 21.9999 11.5323 21.703 11.2432C21.406 10.954 21.0033 10.7916 20.5834 10.7916H12.6667C12.2468 10.7916 11.8441 10.954 11.5471 11.2432C11.2502 11.5323 11.0834 11.9244 11.0834 12.3333V20.0416C11.0834 20.4505 11.2502 20.8426 11.5471 21.1317C11.8441 21.4209 12.2468 21.5833 12.6667 21.5833H15.8334V24.6666C15.8334 25.0755 16.0002 25.4676 16.2971 25.7567C16.5941 26.0459 16.9968 26.2083 17.4167 26.2083H25.3334C25.7533 26.2083 26.156 26.0459 26.453 25.7567C26.7499 25.4676 26.9167 25.0755 26.9167 24.6666V16.9583C26.9167 16.5494 26.7499 16.1573 26.453 15.8682C26.156 15.579 25.7533 15.4166 25.3334 15.4166ZM15.8334 16.9583V18.5H14.2501V13.875H19.0001V15.4166H17.4167C16.9968 15.4166 16.5941 15.579 16.2971 15.8682C16.0002 16.1573 15.8334 16.5494 15.8334 16.9583ZM23.7501 23.125H19.0001V18.5H23.7501V23.125ZM33.2501 28.1816V8.81829C33.6783 8.58637 34.0454 8.26085 34.3225 7.86736C34.5996 7.47387 34.7791 7.02313 34.8469 6.55062C34.9148 6.0781 34.8691 5.59671 34.7134 5.14431C34.5578 4.69191 34.2964 4.28086 33.9499 3.94349C33.6034 3.60613 33.1813 3.35165 32.7167 3.2001C32.252 3.04855 31.7576 3.00404 31.2723 3.0701C30.7871 3.13615 30.3241 3.31096 29.92 3.58076C29.5159 3.85057 29.1816 4.20801 28.9434 4.62495H9.05672C8.81853 4.20801 8.48422 3.85057 8.08009 3.58076C7.67596 3.31096 7.21304 3.13615 6.72776 3.0701C6.24248 3.00404 5.74807 3.04855 5.28345 3.2001C4.81882 3.35165 4.39666 3.60613 4.05018 3.94349C3.70369 4.28086 3.44234 4.69191 3.28669 5.14431C3.13104 5.59671 3.08534 6.0781 3.15318 6.55062C3.22102 7.02313 3.40055 7.47387 3.67764 7.86736C3.95474 8.26085 4.32184 8.58637 4.75005 8.81829V28.1816C4.32184 28.4135 3.95474 28.7391 3.67764 29.1325C3.40055 29.526 3.22102 29.9768 3.15318 30.4493C3.08534 30.9218 3.13104 31.4032 3.28669 31.8556C3.44234 32.308 3.70369 32.719 4.05018 33.0564C4.39666 33.3938 4.81882 33.6483 5.28345 33.7998C5.74807 33.9514 6.24248 33.9959 6.72776 33.9298C7.21304 33.8638 7.67596 33.6889 8.08009 33.4191C8.48422 33.1493 8.81853 32.7919 9.05672 32.375H28.9434C29.1816 32.7919 29.5159 33.1493 29.92 33.4191C30.3241 33.6889 30.7871 33.8638 31.2723 33.9298C31.7576 33.9959 32.252 33.9514 32.7167 33.7998C33.1813 33.6483 33.6034 33.3938 33.9499 33.0564C34.2964 32.719 34.5578 32.308 34.7134 31.8556C34.8691 31.4032 34.9148 30.9218 34.8469 30.4493C34.7791 29.9768 34.5996 29.526 34.3225 29.1325C34.0454 28.7391 33.6783 28.4135 33.2501 28.1816ZM30.0834 28.1816C29.6072 28.4444 29.2132 28.828 28.9434 29.2916H9.05672C8.78688 28.828 8.39288 28.4444 7.91672 28.1816V8.81829C8.39288 8.55554 8.78688 8.17191 9.05672 7.70829H28.9434C29.2132 8.17191 29.6072 8.55554 30.0834 8.81829V28.1816Z" fill="#5956E8"/>
</svg>
