<svg width="37" height="37" viewBox="0 0 37 37" fill="none" xmlns="http://www.w3.org/2000/svg">
<path d="M30.8334 24.9442V12.0559C31.5728 11.7982 32.2348 11.3571 32.7572 10.7737C33.2796 10.1903 33.6453 9.48388 33.8201 8.72056C33.9948 7.95723 33.9729 7.16203 33.7564 6.40949C33.5399 5.65695 33.1358 4.9717 32.5821 4.41799C32.0284 3.86427 31.3431 3.46021 30.5906 3.24368C29.838 3.02715 29.0428 3.00524 28.2795 3.18001C27.5162 3.35477 26.8097 3.72049 26.2264 4.24288C25.643 4.76527 25.2018 5.42723 24.9442 6.16671H12.0559C11.7982 5.42723 11.3571 4.76527 10.7737 4.24288C10.1903 3.72049 9.48388 3.35477 8.72056 3.18001C7.95723 3.00524 7.16203 3.02715 6.40949 3.24368C5.65695 3.46021 4.9717 3.86427 4.41799 4.41799C3.86427 4.9717 3.46021 5.65695 3.24368 6.40949C3.02715 7.16203 3.00524 7.95723 3.18001 8.72056C3.35477 9.48388 3.72049 10.1903 4.24288 10.7737C4.76527 11.3571 5.42723 11.7982 6.16671 12.0559V24.9442C5.42723 25.2018 4.76527 25.643 4.24288 26.2264C3.72049 26.8097 3.35477 27.5162 3.18001 28.2795C3.00524 29.0428 3.02715 29.838 3.24368 30.5906C3.46021 31.3431 3.86427 32.0284 4.41799 32.5821C4.9717 33.1358 5.65695 33.5399 6.40949 33.7564C7.16203 33.9729 7.95723 33.9948 8.72056 33.8201C9.48388 33.6453 10.1903 33.2796 10.7737 32.7572C11.3571 32.2348 11.7982 31.5728 12.0559 30.8334H24.9442C25.2018 31.5728 25.643 32.2348 26.2264 32.7572C26.8097 33.2796 27.5162 33.6453 28.2795 33.8201C29.0428 33.9948 29.838 33.9729 30.5906 33.7564C31.3431 33.5399 32.0284 33.1358 32.5821 32.5821C33.1358 32.0284 33.5399 31.3431 33.7564 30.5906C33.9729 29.838 33.9948 29.0428 33.8201 28.2795C33.6453 27.5162 33.2796 26.8097 32.7572 26.2264C32.2348 25.643 31.5728 25.2018 30.8334 24.9442V24.9442ZM29.2917 6.16671C29.5966 6.16671 29.8947 6.25712 30.1482 6.42652C30.4017 6.59592 30.5993 6.8367 30.716 7.1184C30.8327 7.4001 30.8632 7.71008 30.8037 8.00914C30.7443 8.30819 30.5974 8.58289 30.3818 8.79849C30.1662 9.0141 29.8915 9.16093 29.5925 9.22042C29.2934 9.2799 28.9834 9.24937 28.7017 9.13269C28.42 9.016 28.1793 8.8184 28.0099 8.56488C27.8405 8.31135 27.75 8.01328 27.75 7.70837C27.75 7.2995 27.9125 6.90737 28.2016 6.61825C28.4907 6.32913 28.8828 6.16671 29.2917 6.16671V6.16671ZM7.70837 6.16671C8.01328 6.16671 8.31135 6.25712 8.56488 6.42652C8.8184 6.59592 9.016 6.8367 9.13269 7.1184C9.24937 7.4001 9.2799 7.71008 9.22042 8.00914C9.16093 8.30819 9.0141 8.58289 8.79849 8.79849C8.58289 9.0141 8.30819 9.16093 8.00914 9.22042C7.71008 9.2799 7.4001 9.24937 7.1184 9.13269C6.8367 9.016 6.59592 8.8184 6.42652 8.56488C6.25712 8.31135 6.16671 8.01328 6.16671 7.70837C6.16671 7.2995 6.32913 6.90737 6.61825 6.61825C6.90737 6.32913 7.2995 6.16671 7.70837 6.16671V6.16671ZM7.70837 30.8334C7.40346 30.8334 7.10539 30.743 6.85187 30.5736C6.59834 30.4042 6.40074 30.1634 6.28406 29.8817C6.16737 29.6 6.13684 29.29 6.19633 28.9909C6.25581 28.6919 6.40264 28.4172 6.61825 28.2016C6.83386 27.986 7.10855 27.8391 7.40761 27.7797C7.70666 27.7202 8.01664 27.7507 8.29834 27.8674C8.58004 27.9841 8.82082 28.1817 8.99022 28.4352C9.15962 28.6887 9.25004 28.9868 9.25004 29.2917C9.25004 29.7006 9.08761 30.0927 8.79849 30.3818C8.50938 30.6709 8.11725 30.8334 7.70837 30.8334ZM24.9442 27.75H12.0559C11.8257 27.1035 11.4545 26.5162 10.9692 26.0309C10.4838 25.5456 9.89661 25.1744 9.25004 24.9442V12.0559C9.89661 11.8257 10.4838 11.4545 10.9692 10.9692C11.4545 10.4838 11.8257 9.89661 12.0559 9.25004H24.9442C25.1744 9.89661 25.5456 10.4838 26.0309 10.9692C26.5162 11.4545 27.1035 11.8257 27.75 12.0559V24.9442C27.1035 25.1744 26.5162 25.5456 26.0309 26.0309C25.5456 26.5162 25.1744 27.1035 24.9442 27.75V27.75ZM29.2917 30.8334C28.9868 30.8334 28.6887 30.743 28.4352 30.5736C28.1817 30.4042 27.9841 30.1634 27.8674 29.8817C27.7507 29.6 27.7202 29.29 27.7797 28.9909C27.8391 28.6919 27.986 28.4172 28.2016 28.2016C28.4172 27.986 28.6919 27.8391 28.9909 27.7797C29.29 27.7202 29.6 27.7507 29.8817 27.8674C30.1634 27.9841 30.4042 28.1817 30.5736 28.4352C30.743 28.6887 30.8334 28.9868 30.8334 29.2917C30.8334 29.7006 30.6709 30.0927 30.3818 30.3818C30.0927 30.6709 29.7006 30.8334 29.2917 30.8334Z" fill="#5956E8"/>
</svg>
